# This file uses centimeters as units for non-parametric coordinates.

mtllib Arote.mtl
g default
v -4.132752 -57.163019 -0.000001
v -4.132752 -54.365269 -17.664346
v -4.132752 -46.245857 -33.599586
v -4.132752 -33.599580 -46.245863
v -4.132752 -17.664346 -54.365269
v -4.132752 0.000001 -57.163037
v -4.132752 17.664347 -54.365275
v -4.132752 33.599586 -46.245866
v -4.132752 46.245869 -33.599586
v -4.132752 54.365281 -17.664350
v -4.132752 57.163031 -0.000001
v -4.132752 54.365281 17.664347
v -4.132752 46.245869 33.599592
v -4.132752 33.599592 46.245872
v -4.132752 17.664355 54.365293
v -4.132752 -0.000001 57.163049
v -4.132752 -17.664356 54.365293
v -4.132752 -33.599604 46.245884
v -4.132752 -46.245887 33.599604
v -4.132752 -54.365299 17.664356
v 4.132752 -57.163019 -0.000001
v 4.132752 -54.365269 -17.664346
v 4.132752 -46.245857 -33.599586
v 4.132752 -33.599580 -46.245863
v 4.132752 -17.664346 -54.365269
v 4.132752 0.000001 -57.163037
v 4.132752 17.664347 -54.365275
v 4.132752 33.599586 -46.245866
v 4.132752 46.245869 -33.599586
v 4.132752 54.365281 -17.664350
v 4.132752 57.163031 -0.000001
v 4.132752 54.365281 17.664347
v 4.132752 46.245869 33.599592
v 4.132752 33.599592 46.245872
v 4.132752 17.664355 54.365293
v 4.132752 -0.000001 57.163049
v 4.132752 -17.664356 54.365293
v 4.132752 -33.599604 46.245884
v 4.132752 -46.245887 33.599604
v 4.132752 -54.365299 17.664356
v 4.132752 -62.678756 0.000000
v 4.132752 -59.611037 -19.368800
v 4.132752 -50.708180 -36.841644
v 4.132752 -36.841656 -50.708174
v 4.132752 -19.368809 -59.611037
v 4.132752 -0.000007 -62.678756
v 4.132752 19.368796 -59.611049
v 4.132752 36.841644 -50.708186
v 4.132752 50.708180 -36.841659
v 4.132752 59.611049 -19.368814
v 4.132752 62.678768 -0.000009
v 4.132752 59.611049 19.368796
v 4.132752 50.708198 36.841647
v 4.132752 36.841659 50.708186
v 4.132752 19.368811 59.611061
v 4.132752 0.000003 62.678786
v 4.132752 -19.368808 59.611067
v 4.132752 -36.841665 50.708210
v 4.132752 -50.708198 36.841671
v 4.132752 -59.611067 19.368817
v -4.132752 -62.678756 0.000000
v -4.132752 -59.611037 -19.368800
v -4.132752 -50.708180 -36.841644
v -4.132752 -36.841656 -50.708174
v -4.132752 -19.368809 -59.611037
v -4.132752 -0.000007 -62.678756
v -4.132752 19.368796 -59.611049
v -4.132752 36.841644 -50.708186
v -4.132752 50.708180 -36.841659
v -4.132752 59.611049 -19.368814
v -4.132752 62.678768 -0.000009
v -4.132752 59.611049 19.368796
v -4.132752 50.708198 36.841647
v -4.132752 36.841659 50.708186
v -4.132752 19.368811 59.611061
v -4.132752 0.000003 62.678786
v -4.132752 -19.368808 59.611067
v -4.132752 -36.841665 50.708210
v -4.132752 -50.708198 36.841671
v -4.132752 -59.611067 19.368817
vt 0.587163 0.393333
vt 0.543419 0.361412
vt 0.117725 0.847634
vt 0.085985 0.803758
vt 0.638631 0.410174
vt 0.069358 0.752221
vt 0.692784 0.410286
vt 0.069470 0.698068
vt 0.744321 0.393659
vt 0.086311 0.646600
vt 0.788197 0.361919
vt 0.118233 0.602856
vt 0.820119 0.318175
vt 0.162109 0.571116
vt 0.836960 0.266707
vt 0.213646 0.554489
vt 0.837072 0.212554
vt 0.267799 0.554601
vt 0.820445 0.161017
vt 0.319267 0.571442
vt 0.788705 0.117140
vt 0.363011 0.603363
vt 0.744961 0.085219
vt 0.394751 0.647240
vt 0.693493 0.068378
vt 0.411378 0.698777
vt 0.639340 0.068266
vt 0.411266 0.752930
vt 0.587803 0.084893
vt 0.394425 0.804397
vt 0.543926 0.116633
vt 0.362504 0.848142
vt 0.512005 0.160377
vt 0.318627 0.879881
vt 0.495164 0.211845
vt 0.267090 0.896509
vt 0.495052 0.265998
vt 0.212937 0.896396
vt 0.511679 0.317535
vt 0.161469 0.879555
vt 0.034185 0.007466
vt 0.941367 0.918419
vt 0.890132 0.866971
vt 0.837714 0.814335
vt 0.783853 0.760251
vt 0.732685 0.708870
vt 0.683397 0.659377
vt 0.634103 0.609879
vt 0.586315 0.561892
vt 0.542301 0.517695
vt 0.497896 0.473105
vt 0.453586 0.428611
vt 0.408507 0.383344
vt 0.359244 0.333877
vt 0.313225 0.287666
vt 0.269238 0.243497
vt 0.221806 0.195867
vt 0.171343 0.145195
vt 0.128747 0.102422
vt 0.076334 0.049791
vt 0.512758 0.391946
vt 0.567439 0.431847
vt 0.631773 0.452898
vt 0.699464 0.453039
vt 0.763886 0.432254
vt 0.818731 0.392580
vt 0.858633 0.337900
vt 0.879684 0.273565
vt 0.879824 0.205874
vt 0.859040 0.141452
vt 0.819366 0.086607
vt 0.764685 0.046705
vt 0.700351 0.025654
vt 0.632660 0.025514
vt 0.568238 0.046298
vt 0.513393 0.085972
vt 0.473491 0.140653
vt 0.452440 0.204987
vt 0.452300 0.272678
vt 0.473084 0.337100
vt 0.141745 0.918069
vt 0.087064 0.878168
vt 0.206079 0.939121
vt 0.273770 0.939261
vt 0.338192 0.918477
vt 0.393038 0.878803
vt 0.432939 0.824122
vt 0.453990 0.759788
vt 0.454130 0.692096
vt 0.433346 0.627675
vt 0.393672 0.572829
vt 0.338991 0.532928
vt 0.274657 0.511877
vt 0.206966 0.511736
vt 0.142544 0.532520
vt 0.087699 0.572195
vt 0.047797 0.626875
vt 0.026746 0.691210
vt 0.026606 0.758901
vt 0.047390 0.823322
vt 0.044550 0.081443
vt 0.002401 0.039119
vt 0.096963 0.134074
vt 0.139559 0.176847
vt 0.190022 0.227520
vt 0.237454 0.275149
vt 0.281441 0.319319
vt 0.327444 0.365513
vt 0.376723 0.414997
vt 0.421803 0.460264
vt 0.466112 0.504758
vt 0.510518 0.549348
vt 0.554562 0.593575
vt 0.602319 0.641531
vt 0.651614 0.691030
vt 0.700902 0.740523
vt 0.752070 0.791904
vt 0.805930 0.845988
vt 0.858348 0.898624
vt 0.909583 0.950072
vt 0.063409 0.062662
vt 0.021259 0.020338
vt 0.115822 0.115293
vt 0.158418 0.158066
vt 0.208880 0.208739
vt 0.256313 0.256368
vt 0.300300 0.300538
vt 0.346319 0.346749
vt 0.395582 0.396216
vt 0.440661 0.441483
vt 0.484970 0.485977
vt 0.529376 0.530567
vt 0.573390 0.574763
vt 0.621178 0.622750
vt 0.670472 0.672249
vt 0.719760 0.721742
vt 0.770928 0.773123
vt 0.824789 0.827207
vt 0.877206 0.879843
vt 0.928442 0.931291
vt 0.058768 0.067285
vt 0.969941 0.982245
vt 0.111181 0.119916
vt 0.153777 0.162689
vt 0.204240 0.213361
vt 0.251672 0.260991
vt 0.295659 0.305161
vt 0.341662 0.351355
vt 0.390941 0.400838
vt 0.436020 0.446105
vt 0.480330 0.490599
vt 0.524735 0.535189
vt 0.568780 0.579417
vt 0.616537 0.627372
vt 0.665831 0.676871
vt 0.715120 0.726365
vt 0.766287 0.777745
vt 0.820148 0.831830
vt 0.872566 0.884465
vt 0.923801 0.935914
vt 0.016619 0.024960
vt 0.955724 0.996404
vt 0.987507 0.964751
vt 0.974582 0.977623
vt 0.117725 0.847634
vt 0.087064 0.878168
vt 0.512758 0.391946
vt 0.543419 0.361412
vn 0.000000 0.951057 0.309017
vn 0.000000 1.000000 0.000001
vn 0.000000 1.000000 0.000001
vn 0.000000 0.951057 0.309017
vn 0.000000 0.809017 0.587785
vn 0.000000 0.809017 0.587785
vn 0.000000 0.587785 0.809017
vn 0.000000 0.587785 0.809017
vn 0.000000 0.309017 0.951056
vn 0.000000 0.309017 0.951056
vn 0.000000 0.000000 1.000000
vn 0.000000 0.000000 1.000000
vn 0.000000 -0.309017 0.951056
vn 0.000000 -0.309017 0.951056
vn 0.000000 -0.587785 0.809017
vn 0.000000 -0.587785 0.809017
vn 0.000000 -0.809017 0.587785
vn 0.000000 -0.809017 0.587785
vn 0.000000 -0.951057 0.309017
vn 0.000000 -0.951057 0.309017
vn 0.000000 -1.000000 0.000000
vn 0.000000 -1.000000 0.000000
vn 0.000000 -0.951057 -0.309017
vn 0.000000 -0.951057 -0.309017
vn 0.000000 -0.809017 -0.587785
vn 0.000000 -0.809017 -0.587785
vn 0.000000 -0.587786 -0.809017
vn 0.000000 -0.587786 -0.809017
vn 0.000000 -0.309017 -0.951057
vn 0.000000 -0.309017 -0.951057
vn 0.000000 0.000000 -1.000000
vn 0.000000 0.000000 -1.000000
vn 0.000000 0.309017 -0.951057
vn 0.000000 0.309017 -0.951057
vn 0.000000 0.587785 -0.809017
vn 0.000000 0.587785 -0.809017
vn 0.000000 0.809017 -0.587785
vn 0.000000 0.809017 -0.587785
vn 0.000000 0.951057 -0.309016
vn 0.000000 0.951057 -0.309016
vn 1.000000 0.000000 0.000000
vn 1.000000 0.000000 0.000000
vn 1.000000 0.000000 0.000000
vn 1.000000 0.000000 0.000000
vn 1.000000 0.000000 -0.000000
vn 1.000000 0.000000 0.000000
vn 1.000000 0.000000 -0.000000
vn 1.000000 0.000000 -0.000000
vn 1.000000 0.000000 -0.000000
vn 1.000000 0.000000 -0.000000
vn 1.000000 0.000000 -0.000000
vn 1.000000 0.000000 -0.000000
vn 1.000000 0.000000 0.000000
vn 1.000000 0.000000 0.000000
vn 1.000000 0.000000 0.000000
vn 1.000000 0.000000 0.000000
vn 1.000000 0.000000 0.000000
vn 1.000000 0.000000 0.000000
vn 1.000000 0.000000 0.000000
vn 1.000000 0.000000 0.000000
vn 1.000000 0.000000 -0.000000
vn 1.000000 0.000000 -0.000000
vn 1.000000 0.000000 -0.000000
vn 1.000000 0.000000 -0.000000
vn 1.000000 0.000000 0.000000
vn 1.000000 0.000000 -0.000000
vn 1.000000 0.000000 0.000000
vn 1.000000 0.000000 0.000000
vn 1.000000 0.000000 0.000000
vn 1.000000 0.000000 0.000000
vn 1.000000 0.000000 0.000000
vn 1.000000 0.000000 0.000000
vn 1.000000 0.000000 -0.000000
vn 1.000000 0.000000 -0.000000
vn 1.000000 0.000000 -0.000000
vn 1.000000 0.000000 -0.000000
vn 1.000000 0.000000 -0.000000
vn 1.000000 0.000000 -0.000000
vn 1.000000 0.000000 0.000000
vn 1.000000 0.000000 0.000000
vn 0.000000 -0.951056 -0.309017
vn 0.000000 -1.000000 -0.000001
vn 0.000000 -1.000000 -0.000001
vn 0.000000 -0.951056 -0.309017
vn 0.000000 -0.809017 -0.587785
vn 0.000000 -0.809017 -0.587785
vn 0.000000 -0.587785 -0.809017
vn 0.000000 -0.587785 -0.809017
vn 0.000000 -0.309017 -0.951056
vn 0.000000 -0.309017 -0.951056
vn 0.000000 -0.000000 -1.000000
vn 0.000000 -0.000000 -1.000000
vn 0.000000 0.309017 -0.951057
vn 0.000000 0.309017 -0.951057
vn 0.000000 0.587785 -0.809017
vn 0.000000 0.587785 -0.809017
vn 0.000000 0.809017 -0.587786
vn 0.000000 0.809017 -0.587786
vn 0.000000 0.951056 -0.309017
vn 0.000000 0.951056 -0.309017
vn 0.000000 1.000000 0.000000
vn 0.000000 1.000000 0.000000
vn 0.000000 0.951057 0.309017
vn 0.000000 0.951057 0.309017
vn 0.000000 0.809017 0.587785
vn 0.000000 0.809017 0.587785
vn 0.000000 0.587786 0.809017
vn 0.000000 0.587786 0.809017
vn 0.000000 0.309017 0.951056
vn 0.000000 0.309017 0.951056
vn 0.000000 0.000000 1.000000
vn 0.000000 0.000000 1.000000
vn 0.000000 -0.309017 0.951057
vn 0.000000 -0.309017 0.951057
vn 0.000000 -0.587785 0.809017
vn 0.000000 -0.587785 0.809017
vn 0.000000 -0.809017 0.587785
vn 0.000000 -0.809017 0.587785
vn 0.000000 -0.951057 0.309016
vn 0.000000 -0.951057 0.309016
vn -1.000000 -0.000000 0.000000
vn -1.000000 -0.000000 0.000000
vn -1.000000 -0.000000 0.000000
vn -1.000000 -0.000000 0.000000
vn -1.000000 0.000000 -0.000000
vn -1.000000 0.000000 -0.000000
vn -1.000000 0.000000 -0.000000
vn -1.000000 0.000000 -0.000000
vn -1.000000 0.000000 -0.000000
vn -1.000000 0.000000 -0.000000
vn -1.000000 0.000000 -0.000000
vn -1.000000 0.000000 -0.000000
vn -1.000000 -0.000000 0.000000
vn -1.000000 -0.000000 0.000000
vn -1.000000 -0.000000 0.000000
vn -1.000000 -0.000000 0.000000
vn -1.000000 -0.000000 0.000000
vn -1.000000 0.000000 -0.000000
vn -1.000000 0.000000 -0.000000
vn -1.000000 0.000000 -0.000000
vn -1.000000 0.000000 -0.000000
vn -1.000000 0.000000 -0.000000
vn -1.000000 -0.000000 0.000000
vn -1.000000 -0.000000 0.000000
vn -1.000000 -0.000000 0.000000
vn -1.000000 -0.000000 0.000000
vn -1.000000 -0.000000 0.000000
vn -1.000000 -0.000000 0.000000
vn -1.000000 -0.000000 0.000000
vn -1.000000 -0.000000 0.000000
vn -1.000000 -0.000000 0.000000
vn -1.000000 -0.000000 0.000000
vn -1.000000 0.000000 -0.000000
vn -1.000000 0.000000 -0.000000
vn -1.000000 0.000000 -0.000000
vn -1.000000 0.000000 -0.000000
vn -1.000000 0.000000 -0.000000
vn -1.000000 -0.000000 0.000000
vn -1.000000 -0.000000 0.000000
vn -1.000000 -0.000000 0.000000
s 1
g pPipe1
usemtl initialShadingGroup
f 2/160/1 1/142/2 21/162/3 22/120/4
f 3/159/5 2/160/1 22/120/4 23/119/6
f 4/158/7 3/159/5 23/119/6 24/118/8
f 5/157/9 4/158/7 24/118/8 25/117/10
f 6/156/11 5/157/9 25/117/10 26/116/12
f 7/155/13 6/156/11 26/116/12 27/115/14
f 8/154/15 7/155/13 27/115/14 28/114/16
f 9/153/17 8/154/15 28/114/16 29/113/18
f 10/152/19 9/153/17 29/113/18 30/112/20
f 11/151/21 10/152/19 30/112/20 31/111/22
f 12/150/23 11/151/21 31/111/22 32/110/24
f 13/149/25 12/150/23 32/110/24 33/109/26
f 14/148/27 13/149/25 33/109/26 34/108/28
f 15/147/29 14/148/27 34/108/28 35/107/30
f 16/146/31 15/147/29 35/107/30 36/106/32
f 17/145/33 16/146/31 36/106/32 37/105/34
f 18/144/35 17/145/33 37/105/34 38/104/36
f 19/143/37 18/144/35 38/104/36 39/103/38
f 20/141/39 19/143/37 39/103/38 40/101/40
f 1/161/2 20/141/39 40/101/40 21/102/3
s 2
f 22/4/41 21/165/42 41/166/43 42/100/44
f 23/6/45 22/4/41 42/100/44 43/99/46
f 24/8/47 23/6/45 43/99/46 44/98/48
f 25/10/49 24/8/47 44/98/48 45/97/50
f 26/12/51 25/10/49 45/97/50 46/96/52
f 27/14/53 26/12/51 46/96/52 47/95/54
f 28/16/55 27/14/53 47/95/54 48/94/56
f 29/18/57 28/16/55 48/94/56 49/93/58
f 30/20/59 29/18/57 49/93/58 50/92/60
f 31/22/61 30/20/59 50/92/60 51/91/62
f 32/24/63 31/22/61 51/91/62 52/90/64
f 33/26/65 32/24/63 52/90/64 53/89/66
f 34/28/67 33/26/65 53/89/66 54/88/68
f 35/30/69 34/28/67 54/88/68 55/87/70
f 36/32/71 35/30/69 55/87/70 56/86/72
f 37/34/73 36/32/71 56/86/72 57/85/74
f 38/36/75 37/34/73 57/85/74 58/84/76
f 39/38/77 38/36/75 58/84/76 59/83/78
f 40/40/79 39/38/77 59/83/78 60/81/80
f 21/3/42 40/40/79 60/81/80 41/82/43
s 3
f 42/42/81 41/163/82 61/164/83 62/140/84
f 43/43/85 42/42/81 62/140/84 63/139/86
f 44/44/87 43/43/85 63/139/86 64/138/88
f 45/45/89 44/44/87 64/138/88 65/137/90
f 46/46/91 45/45/89 65/137/90 66/136/92
f 47/47/93 46/46/91 66/136/92 67/135/94
f 48/48/95 47/47/93 67/135/94 68/134/96
f 49/49/97 48/48/95 68/134/96 69/133/98
f 50/50/99 49/49/97 69/133/98 70/132/100
f 51/51/101 50/50/99 70/132/100 71/131/102
f 52/52/103 51/51/101 71/131/102 72/130/104
f 53/53/105 52/52/103 72/130/104 73/129/106
f 54/54/107 53/53/105 73/129/106 74/128/108
f 55/55/109 54/54/107 74/128/108 75/127/110
f 56/56/111 55/55/109 75/127/110 76/126/112
f 57/57/113 56/56/111 76/126/112 77/125/114
f 58/58/115 57/57/113 77/125/114 78/124/116
f 59/59/117 58/58/115 78/124/116 79/123/118
f 60/60/119 59/59/117 79/123/118 80/121/120
f 41/41/82 60/60/119 80/121/120 61/122/83
s 4
f 62/62/121 61/167/122 1/2/123 2/1/124
f 63/63/125 62/62/121 2/1/124 3/5/126
f 64/64/127 63/63/125 3/5/126 4/7/128
f 65/65/129 64/64/127 4/7/128 5/9/130
f 66/66/131 65/65/129 5/9/130 6/11/132
f 67/67/133 66/66/131 6/11/132 7/13/134
f 68/68/135 67/67/133 7/13/134 8/15/136
f 69/69/137 68/68/135 8/15/136 9/17/138
f 70/70/139 69/69/137 9/17/138 10/19/140
f 71/71/141 70/70/139 10/19/140 11/21/142
f 72/72/143 71/71/141 11/21/142 12/23/144
f 73/73/145 72/72/143 12/23/144 13/25/146
f 74/74/147 73/73/145 13/25/146 14/27/148
f 75/75/149 74/74/147 14/27/148 15/29/150
f 76/76/151 75/75/149 15/29/150 16/31/152
f 77/77/153 76/76/151 16/31/152 17/33/154
f 78/78/155 77/77/153 17/33/154 18/35/156
f 79/79/157 78/78/155 18/35/156 19/37/158
f 80/80/159 79/79/157 19/37/158 20/39/160
f 61/61/122 80/80/159 20/39/160 1/168/123
